<svg width="20" height="20" viewBox="0 0 20 20" xmlns="http://www.w3.org/2000/svg">
    <path d="M4 0H16C17.0609 0 18.0783 0.419858 18.8284 1.16721C19.5786 1.91456 20 2.92819 20 3.9851V15.9404C20 16.9973 19.5786 18.011 18.8284 18.7583C18.0783 19.5057 17.0609 19.9255 16 19.9255H4C2.93913 19.9255 1.92172 19.5057 1.17157 18.7583C0.421427 18.011 0 16.9973 0 15.9404V3.9851C0 2.92819 0.421427 1.91456 1.17157 1.16721C1.92172 0.419858 2.93913 0 4 0ZM4 1.99255C3.46957 1.99255 2.96086 2.20248 2.58579 2.57616C2.21071 2.94983 2 3.45665 2 3.9851V15.9404C2 16.4689 2.21071 16.9757 2.58579 17.3494C2.96086 17.723 3.46957 17.933 4 17.933H16C16.5304 17.933 17.0391 17.723 17.4142 17.3494C17.7893 16.9757 18 16.4689 18 15.9404V3.9851C18 3.45665 17.7893 2.94983 17.4142 2.57616C17.0391 2.20248 16.5304 1.99255 16 1.99255H4ZM11.414 9.96276L14.243 12.7802C14.4306 12.9672 14.5361 13.2207 14.5361 13.4851C14.5361 13.7495 14.4306 14.003 14.243 14.19C14.0554 14.3769 13.8009 14.4819 13.5355 14.4819C13.2701 14.4819 13.0156 14.3769 12.828 14.19L10 11.3715L7.172 14.19C6.98436 14.3769 6.72987 14.4819 6.4645 14.4819C6.19914 14.4819 5.94464 14.3769 5.757 14.19C5.56936 14.003 5.46394 13.7495 5.46394 13.4851C5.46394 13.3542 5.48982 13.2246 5.54011 13.1036C5.59039 12.9827 5.66409 12.8728 5.757 12.7802L8.586 9.96276L5.757 7.14529C5.56936 6.95835 5.46394 6.7048 5.46394 6.44042C5.46394 6.30952 5.48982 6.1799 5.54011 6.05895C5.59039 5.93801 5.66409 5.82812 5.757 5.73556C5.84991 5.64299 5.96021 5.56957 6.0816 5.51947C6.203 5.46938 6.33311 5.44359 6.4645 5.44359C6.72987 5.44359 6.98436 5.54862 7.172 5.73556L10 8.55402L12.828 5.73556C13.0156 5.54862 13.2701 5.44359 13.5355 5.44359C13.8009 5.44359 14.0554 5.54862 14.243 5.73556C14.4306 5.9225 14.5361 6.17605 14.5361 6.44042C14.5361 6.7048 14.4306 6.95835 14.243 7.14529L11.414 9.96276Z"/>
</svg>
