<svg width="16" height="16" viewBox="0 0 16 16" fill="none" xmlns="http://www.w3.org/2000/svg">
<path d="M15.0004 7.00016H3.83041L8.71041 2.12016C9.10041 1.73016 9.10041 1.09016 8.71041 0.700159C8.6179 0.607455 8.50801 0.533907 8.38704 0.483726C8.26606 0.433545 8.13638 0.407715 8.00541 0.407715C7.87444 0.407715 7.74476 0.433545 7.62379 0.483726C7.50282 0.533907 7.39293 0.607455 7.30041 0.700159L0.710413 7.29016C0.617709 7.38267 0.544162 7.49256 0.49398 7.61353C0.443799 7.73451 0.417969 7.86419 0.417969 7.99516C0.417969 8.12613 0.443799 8.25581 0.49398 8.37678C0.544162 8.49776 0.617709 8.60765 0.710413 8.70016L7.30041 15.2902C7.39299 15.3827 7.50291 15.4562 7.62387 15.5063C7.74483 15.5564 7.87448 15.5822 8.00541 15.5822C8.13634 15.5822 8.26599 15.5564 8.38696 15.5063C8.50792 15.4562 8.61783 15.3827 8.71041 15.2902C8.80299 15.1976 8.87643 15.0877 8.92654 14.9667C8.97664 14.8457 9.00243 14.7161 9.00243 14.5852C9.00243 14.4542 8.97664 14.3246 8.92654 14.2036C8.87643 14.0827 8.80299 13.9727 8.71041 13.8802L3.83041 9.00016H15.0004C15.5504 9.00016 16.0004 8.55016 16.0004 8.00016C16.0004 7.45016 15.5504 7.00016 15.0004 7.00016Z" fill="black"/>
</svg>
